# xmcd
#
# Track frame offsets:
#	150
#	21470
#	33920
#	52390
#	67565
#	93654
#	104900
#	118100
#	134557
#	153442
#	163892
#	177190
#	202775
#	214215
#	227372
#
# Disc length: 3245 seconds
#
# Revision: 3
# Processed by: cddbd v1.5.1PL2 Copyright (c) Steve Scherf et al.
# Submitted via: EasyCDDAExtractor 9.1.3.1
#
DISCID=d70cab0f
DTITLE=Various Artist - SUPERSTARS de la chanson 6
DYEAR=1987
DGENRE=Chanson
TTITLE0=Johnny HOLLIDAY - J'ai oublié de vivre
TTITLE1=Jean-Michel Carradec - Ma petite fille de rêve
TTITLE2=Robert Charlebois - Les ailes d'un ange
TTITLE3=Christophe - Petite fille du soleil
TTITLE4=Bernard Lavillers - San Salvador
TTITLE5=Dick Annegarn - Bruxelles
TTITLE6=Eddy Michell - La fille du Motel
TTITLE7=Stone et Charden - L'aventura
TTITLE8=Adamo - Et t'oublier
TTITLE9=Daniel Guichard - La tendresse
TTITLE10=Dalida - Il venait d'avoir 18 ans
TTITLE11=Gilbert bécaud - La vente aux enchères
TTITLE12=Serge Lama - Les p'tites femmes de Pigalle
TTITLE13=MariePaule Belle - La Parisienne
TTITLE14=Frédéric François - Laisse-moi vivre ma vie
EXTD=YEAR: 1987
EXTT0=
EXTT1=
EXTT2=
EXTT3=
EXTT4=
EXTT5=
EXTT6=
EXTT7=
EXTT8=
EXTT9=
EXTT10=
EXTT11=
EXTT12=
EXTT13=
EXTT14=
PLAYORDER=
